KRSPY-parametric-WideBlackMaxGrade.ufo
<glyph name="comma" format="2">
  <advance width="1851.9493637781925"/>
  <unicode hex="002C"/>
  <outline>
    <contour>
      <point x="1469.9296533771007" y="-47.731058385713055" type="line"/>
      <point x="1759.5975615254893" y="0.9033538042547051" type="line"/>
      <point x="1759.5975615254893" y="541.9351964577189" type="line"/>
      <point x="962.6881175469764" y="541.9351964577189" type="line"/>
      <point x="813.7109000892785" y="361.7914791668545" type="line"/>
      <point x="813.7109000892785" y="0.0" type="line"/>
      <point x="1315.133085036989" y="0.0" type="line"/>
      <point x="1315.133085036989" y="-47.731058385713055" type="line"/>
    </contour>
  </outline>
</glyph>
<glyph name="period" format="2">
  <advance width="1325"/>
  <unicode hex="002E"/>
  <outline>
    <contour>
      <point x="1003" y="0" type="line" identifier="1m237t4hyw"/>
      <point x="1124" y="114" type="line" identifier="v7N4yg5XNk"/>
      <point x="1124" y="528" type="line"/>
      <point x="278" y="528" type="line" identifier="zfocDyDTCM"/>
      <point x="157" y="413" type="line"/>
      <point x="157" y="0" type="line" identifier="S4rO5KuHiL"/>
    </contour>
  </outline>
</glyph>
<glyph name="one" format="2">
  <advance width="4608.910327745163"/>
  <unicode hex="0031"/>
  <outline>
    <contour>
      <point x="88.29657886114342" y="0.0" type="line"/>
      <point x="4379.531579627676" y="0.0" type="line" identifier="CURJAw79Zl"/>
      <point x="4379.531579627676" y="598.888167446726" type="line" identifier="0DUCJo8xIi"/>
      <point x="2706.4123823523223" y="598.888167446726" type="line" identifier="5nmxQXofSG"/>
      <point x="2706.4123823523223" y="1600.0" type="line" identifier="4rjIeWbSbx"/>
      <point x="85.24869614359103" y="1600.0" type="line"/>
      <point x="85.24869614359103" y="1001.1118325532739" type="line"/>
      <point x="1761.4157761364968" y="1001.1118325532739" type="line"/>
      <point x="1761.4157761364968" y="598.888167446726" type="line"/>
      <point x="88.29657886114342" y="598.888167446726" type="line"/>
    </contour>
  </outline>
</glyph>
<glyph name="two" format="2">
  <advance width="4929"/>
  <unicode hex="0032"/>
  <outline>
    <contour>
      <point x="145" y="0" type="line"/>
      <point x="4784" y="0" type="line" identifier="pzdvPTirLJ"/>
      <point x="4784" y="493" type="line"/>
      <point x="1423" y="493" type="line"/>
      <point x="1423" y="486" type="line"/>
      <point x="4720" y="766" type="line" identifier="yyb1NCCI5w"/>
      <point x="4720" y="1600" type="line" identifier="5FogYRSgkk"/>
      <point x="165" y="1600" type="line" identifier="svlFvrau4c"/>
      <point x="165" y="950" type="line" identifier="LQ9fBsTy9K"/>
      <point x="1101" y="950" type="line"/>
      <point x="1101" y="1107" type="line"/>
      <point x="3400" y="1107" type="line"/>
      <point x="3400" y="1049" type="line"/>
      <point x="145" y="798" type="line" identifier="teVKnpBcVb"/>
    </contour>
  </outline>
</glyph>
<glyph name="three" format="2">
  <advance width="5043"/>
  <unicode hex="0033"/>
  <outline>
    <contour>
      <point x="143" y="0" type="line" identifier="O9abUc1nmN"/>
      <point x="4954" y="0" type="line" identifier="kMJYMTfXCq"/>
      <point x="4954" y="896" type="line" identifier="su2XmdS8e8"/>
      <point x="4465" y="903" type="line" identifier="JQaOzDQqlF"/>
      <point x="4380" y="793" type="line"/>
      <point x="4841" y="1078" type="line" identifier="S91TzLL02W"/>
      <point x="4841" y="1600" type="line" identifier="xg8x2Ki40p"/>
      <point x="166" y="1600" type="line" identifier="pE1XSRiy68"/>
      <point x="166" y="889" type="line" identifier="5lNstGRcSF"/>
      <point x="1106" y="889" type="line" identifier="AcE5xKDZfE"/>
      <point x="1106" y="1107" type="line" identifier="7ogBYufWpl"/>
      <point x="3698" y="1107" type="line" identifier="RHLvSX2Jv6"/>
      <point x="3698" y="1120" type="line" identifier="YUjTrmoWd9"/>
      <point x="3591" y="1044" type="line"/>
      <point x="3675" y="1044" type="line" identifier="iic1IBkDqp"/>
      <point x="1563" y="1044" type="line" identifier="lRLJEhXMlO"/>
      <point x="1563" y="551" type="line" identifier="8aKgEELrVU"/>
      <point x="4014" y="551" type="line" identifier="Dm8zjmbhNr"/>
      <point x="4014" y="493" type="line" identifier="xv9CFHiFgB"/>
      <point x="1083" y="493" type="line" identifier="YajKQV3MHP"/>
      <point x="1083" y="706" type="line" identifier="36SchVkwze"/>
      <point x="143" y="706" type="line" identifier="tVui9PiOjA"/>
    </contour>
  </outline>
</glyph>
<glyph name="four" format="2">
  <advance width="5039"/>
  <unicode hex="0034"/>
  <outline>
    <contour>
      <point x="3560" y="0" type="line"/>
      <point x="4499" y="0" type="line"/>
      <point x="4499" y="482" type="line"/>
      <point x="4897" y="482" type="line"/>
      <point x="4897" y="1013" type="line"/>
      <point x="4499" y="1013" type="line"/>
      <point x="4499" y="1600" type="line"/>
      <point x="3560" y="1600" type="line"/>
      <point x="3560" y="1013" type="line"/>
      <point x="1080" y="1013" type="line"/>
      <point x="1080" y="1074" type="line"/>
      <point x="1487" y="1611" type="line"/>
      <point x="551" y="1611" type="line"/>
      <point x="143" y="1073" type="line"/>
      <point x="143" y="482" type="line"/>
      <point x="3560" y="482" type="line"/>
    </contour>
  </outline>
</glyph>
<glyph name="seven" format="2">
  <advance width="5502.9631012393775"/>
  <unicode hex="0037"/>
  <outline>
    <contour>
      <point x="1919.8196544893244" y="0.0" type="line"/>
      <point x="3221.7417026636244" y="0.0" type="line" identifier="PiPrv7Kcoy"/>
      <point x="5272.891468044621" y="977.2996930864797" type="line" identifier="PkvwNC9Tx1"/>
      <point x="5272.891468044621" y="1600.0" type="line" identifier="tgqM27bPOm"/>
      <point x="229.77166355544733" y="1600.0" type="line" identifier="36ml4xRICt"/>
      <point x="229.77166355544733" y="645.6872367863359" type="line" identifier="aaDZsh5Mah"/>
      <point x="996.6983319655991" y="645.6872367863359" type="line"/>
      <point x="996.6983319655991" y="1001.1118325532739" type="line"/>
      <point x="3972.7761274788304" y="1001.1118325532739" type="line"/>
      <point x="3972.7761274788304" y="986.788301815329" type="line"/>
    </contour>
  </outline>
</glyph>
<glyph name="eight" format="2">
  <advance width="5079"/>
  <unicode hex="0038"/>
  <outline>
    <contour>
      <point x="3699" y="558" type="line"/>
      <point x="4051" y="395" type="line"/>
      <point x="4051" y="493" type="line"/>
      <point x="1028" y="493" type="line"/>
      <point x="1028" y="379" type="line"/>
      <point x="1381" y="558" type="line"/>
    </contour>
    <contour>
      <point x="4628" y="799" type="line"/>
      <point x="4628" y="801" type="line"/>
      <point x="4985" y="1008" type="line"/>
      <point x="4985" y="1600" type="line"/>
      <point x="93" y="1600" type="line"/>
      <point x="93" y="1008" type="line"/>
      <point x="451" y="801" type="line"/>
      <point x="451" y="799" type="line"/>
      <point x="90" y="591" type="line"/>
      <point x="90" y="0" type="line"/>
      <point x="4989" y="0" type="line"/>
      <point x="4989" y="591" type="line"/>
    </contour>
    <contour>
      <point x="1381" y="1042" type="line"/>
      <point x="1032" y="1213" type="line"/>
      <point x="1031" y="1107" type="line"/>
      <point x="4048" y="1107" type="line"/>
      <point x="4047" y="1213" type="line"/>
      <point x="3698" y="1042" type="line"/>
    </contour>
  </outline>
</glyph>
<glyph name="A" format="2">
  <advance width="5254.37907577247"/>
  <unicode hex="0041"/>
  <outline>
    <contour>
      <point x="92.35180225270318" y="0.0" type="line" smooth="yes" identifier="jFq8ta4UUc"/>
      <point x="1036.4450546642738" y="0.0" type="line" smooth="yes" identifier="dQz4RxYhG4"/>
      <point x="1036.4450546642738" y="335.5966507047588" type="line" smooth="yes" identifier="viYRWe5UN7"/>
      <point x="4189.876774672572" y="335.5966507047588" type="line" smooth="yes" identifier="QVexAlbAcl"/>
      <point x="4189.876774672572" y="0.0" type="line" smooth="yes" identifier="ZgsCdxNJRW"/>
      <point x="5135.763436108783" y="0.0" type="line" smooth="yes" identifier="kpn4Kw9J0C"/>
      <point x="5135.763436108783" y="1600.0" type="line" smooth="yes" identifier="OBZ5Ayed7M"/>
      <point x="582.3938953968984" y="1600.0" type="line" smooth="yes" identifier="iDT0uyhKrn"/>
      <point x="92.35180225270318" y="1090.8621835048261" type="line" smooth="yes" identifier="dqVr87m3uJ"/>
    </contour>
    <contour>
      <point x="1036.4450546642738" y="871.2500518536555" type="line" smooth="yes" identifier="IIRC9Wy7kQ"/>
      <point x="1036.4450546642738" y="832.4441017594171" type="line" smooth="yes" identifier="VufvPdJ075"/>
      <point x="1216.832381931481" y="1001.1118325532739" type="line" smooth="yes" identifier="FsYtJ2vFnp"/>
      <point x="4189.876774672572" y="1001.1118325532739" type="line" smooth="yes" identifier="tUsW8L7b0y"/>
      <point x="4189.876774672572" y="871.2500518536555" type="line" smooth="yes" identifier="eTe9B4y76W"/>
    </contour>
  </outline>
</glyph>
<glyph name="B" format="2">
  <advance width="5092"/>
  <unicode hex="0042"/>
  <outline>
    <contour>
      <point x="116" y="0" type="line" identifier="hvY9r8RmLr"/>
      <point x="5002" y="0" type="line" identifier="9QFpw7nfq7"/>
      <point x="5002" y="568" type="line" identifier="543PerILpr"/>
      <point x="4656" y="800" type="line" identifier="zhomauHW30"/>
      <point x="4656" y="802" type="line" identifier="870ZhtaozS"/>
      <point x="4954" y="1026" type="line" identifier="eGKH52Jgnk"/>
      <point x="4954" y="1600" type="line" identifier="FaP204GrdB"/>
      <point x="116" y="1600" type="line" identifier="JEev70GAj6"/>
    </contour>
    <contour>
      <point x="1053" y="1044" type="line" identifier="By7dfMihfe"/>
      <point x="1054" y="1107" type="line" identifier="1p5hKrurVy"/>
      <point x="4016" y="1107" type="line" identifier="Qby8aMtF2X"/>
      <point x="4016" y="1171" type="line" identifier="9lW01gQyU2"/>
      <point x="3863" y="1044" type="line" identifier="xpxyvIzPoc"/>
    </contour>
    <contour>
      <point x="1054" y="493" type="line" identifier="jaMSiLrCua"/>
      <point x="1054" y="556" type="line" identifier="XSrxNd2axx"/>
      <point x="3727" y="556" type="line" identifier="VyYlzRh5nq"/>
      <point x="4064" y="372" type="line" identifier="lsRGatjQja"/>
      <point x="4064" y="493" type="line" identifier="xhlDJ3CjD5"/>
    </contour>
  </outline>
</glyph>
<glyph name="C" format="2">
  <advance width="5279.454724995265"/>
  <unicode hex="0043"/>
  <outline>
    <contour>
      <point x="92.35180225270318" y="0.0" type="line" identifier="7lPhzTnk2Z"/>
      <point x="5130.043214385557" y="0.0" type="line" identifier="qJVLZGnkwh"/>
      <point x="5130.043214385557" y="734.8782446109773" type="line" identifier="nDnDHzAMXL"/>
      <point x="4185.046608169731" y="734.8782446109773" type="line" identifier="QX1V08aTu0"/>
      <point x="4185.046608169731" y="607.9217054892731" type="line" identifier="Y750RHTvDj"/>
      <point x="1038.19286854422" y="607.9217054892731" type="line" identifier="L2LsGnXiZ2"/>
      <point x="1038.19286854422" y="757.5645525405286" type="line" identifier="sUWsr03vF4"/>
      <point x="1275.3456910363814" y="992.0782945107269" type="line" identifier="dbOUe6OhxL"/>
      <point x="4186.86728470212" y="992.0782945107269" type="line" identifier="5BjRbcud80"/>
      <point x="4186.86728470212" y="758.0007334661991" type="line" identifier="fNVDqwQo2o"/>
      <point x="5131.863890917945" y="758.0007334661991" type="line" identifier="wLqQQx7QVN"/>
      <point x="5131.863890917945" y="1600.0" type="line" identifier="9eJelv8BOw"/>
      <point x="581.9790962133304" y="1600.0" type="line" identifier="lfZev3ICaC"/>
      <point x="92.35180225270318" y="1098.7644130617105" type="line" identifier="V1EWIdPahq"/>
    </contour>
  </outline>
</glyph>
<glyph name="D" format="2">
  <advance width="5347.004409815221"/>
  <unicode hex="0044"/>
  <outline>
    <contour>
      <point x="229.73313253193135" y="0.0" type="line" identifier="gh4oopoKIn"/>
      <point x="5276.9039880721575" y="0.0" type="line" identifier="wIy2omw5Da"/>
      <point x="5276.9039880721575" y="1089.5090676261848" type="line" identifier="ydeACnPZN4"/>
      <point x="4669.107861615369" y="1600.0" type="line" identifier="IF8msvcgce"/>
      <point x="229.73313253193135" y="1600.0" type="line" identifier="hTYdJwlqIh"/>
    </contour>
    <contour>
      <point x="1173.826384943502" y="1001.1118325532739" type="line" identifier="YShvMHvurg"/>
      <point x="4025.99911923936" y="1001.1118325532739" type="line" identifier="DiLdvAK6bW"/>
      <point x="4332.810735660586" y="748.9023377732087" type="line" identifier="5OFemp6E2Y"/>
      <point x="4332.810735660586" y="598.888167446726" type="line" identifier="4w8cXO1HlF"/>
      <point x="1173.826384943502" y="598.888167446726" type="line" identifier="OGdfzPVlic"/>
    </contour>
  </outline>
</glyph>
<glyph name="E" format="2">
  <advance width="4574.129955781607"/>
  <unicode hex="0045"/>
  <outline>
    <contour>
      <point x="118.6156396636877" y="0.0" type="line" identifier="fZynkQ4XHB"/>
      <point x="4424.957858759661" y="0.0" type="line" identifier="FAQNpgUPxV"/>
      <point x="4424.957858759661" y="577.5421036652267" type="line" identifier="gHI0YjrPxR"/>
      <point x="3408.272374476579" y="577.5421036652267" type="line" identifier="gxCIuXb4el"/>
      <point x="3408.272374476579" y="543.763574385196" type="line" identifier="5cgTYOhATF"/>
      <point x="1062.7088920752583" y="543.763574385196" type="line" identifier="bWs42DaCgU"/>
      <point x="1062.7088920752583" y="615.3504585666749" type="line" identifier="VtD2aADJmn"/>
      <point x="4399.766893019145" y="615.3504585666749" type="line" identifier="PpbsFdHAnS"/>
      <point x="4399.766893019145" y="984.6981395810225" type="line" identifier="8WuC5p8Ax5"/>
      <point x="1062.7088920752583" y="984.6981395810225" type="line" identifier="m39IWn9ntA"/>
      <point x="1062.7088920752583" y="1056.7710052394737" type="line" identifier="gQ21I4SHQg"/>
      <point x="3407.272374476579" y="1056.7710052394737" type="line" identifier="eqNb2VTwYs"/>
      <point x="3407.224491759026" y="1022.1132363594825" type="line" identifier="mLmcFoJA4m"/>
      <point x="4423.909976042108" y="1022.1132363594825" type="line" identifier="e79n7CoPy1"/>
      <point x="4423.957858759661" y="1600.0" type="line" identifier="qYRmo14Il5"/>
      <point x="118.6156396636877" y="1600.0" type="line" identifier="HmJIcnLWfC"/>
    </contour>
  </outline>
</glyph>
<glyph name="G" format="2">
  <advance width="5343.1516681847015"/>
  <unicode hex="0047"/>
  <outline>
    <contour>
      <point x="70.1004217430644" y="0.0" type="line" identifier="7lPhzTnk2Z"/>
      <point x="5114.124460797133" y="0.0" type="line" identifier="qJVLZGnkwh"/>
      <point x="5114.124460797133" y="967.2399997595193" type="line" identifier="uek1NNj7De"/>
      <point x="3121.661493325157" y="967.2399997595193" type="line" identifier="qcvimxjndX"/>
      <point x="3121.661493325157" y="612.8119500882264" type="line" identifier="EARaY3Su65"/>
      <point x="4168.620861101342" y="612.8119500882264" type="line" identifier="4m6dHLVhZq"/>
      <point x="4168.620861101342" y="553.7204772339908" type="line" identifier="Y750RHTvDj"/>
      <point x="1014.1936741546351" y="553.7204772339908" type="line" identifier="L2LsGnXiZ2"/>
      <point x="1014.1936741546351" y="845.8402366330293" type="line" identifier="sUWsr03vF4"/>
      <point x="1215.8670051432816" y="1037.245984723462" type="line" identifier="dbOUe6OhxL"/>
      <point x="4168.2236200164125" y="1037.245984723462" type="line" identifier="5BjRbcud80"/>
      <point x="4168.2236200164125" y="1083.406779151524" type="line" identifier="fNVDqwQo2o"/>
      <point x="5114.110281452624" y="1083.406779151524" type="line" identifier="wLqQQx7QVN"/>
      <point x="5113.220226232238" y="1600.0" type="line" identifier="9eJelv8BOw"/>
      <point x="556.8547526505484" y="1600.0" type="line" identifier="lfZev3ICaC"/>
      <point x="70.1004217430644" y="1100.7369561753947" type="line" identifier="V1EWIdPahq"/>
    </contour>
  </outline>
</glyph>
<glyph name="K" format="2">
  <advance width="5209.846801756711"/>
  <unicode hex="004B"/>
  <outline>
    <contour>
      <point x="1041.3608653698743" y="0.0" type="line" identifier="wmNm7XZsaF"/>
      <point x="1041.3608653698743" y="469.84188693197694" type="line" identifier="O22liaP9Qk"/>
      <point x="3901.4361057754454" y="469.84188693197694" type="line" identifier="ELFBWIb1vd"/>
      <point x="4194.749773797821" y="282.3905497088679" type="line" identifier="DzXo67YEfw"/>
      <point x="4194.749773797821" y="0.0" type="line" identifier="aKpYWD78l2"/>
      <point x="5139.746380013647" y="0.0" type="line" identifier="ChS7KlqGi6"/>
      <point x="5139.746380013647" y="560.0366913460006" type="line" identifier="sWLgkU8Vey"/>
      <point x="4769.584716848982" y="799.0" type="line" identifier="Of0iQc0wBG"/>
      <point x="4769.584716848982" y="801.0" type="line" identifier="j4jnmtDJYB"/>
      <point x="5136.925646367089" y="1025.5759212666119" type="line" identifier="dWvz0rZ5Hv"/>
      <point x="5136.925646367089" y="1600.0" type="line" identifier="dMJ1ywOKQQ"/>
      <point x="4191.929040151263" y="1600.0" type="line" identifier="08OWjR2YBJ"/>
      <point x="4191.929040151263" y="1295.9952324697072" type="line" identifier="F62GU90G6q"/>
      <point x="3900.532751971191" y="1122.9312826339853" type="line" identifier="g4YLdZEoM3"/>
      <point x="1041.3608653698743" y="1122.9312826339853" type="line" identifier="uZuki3Isec"/>
      <point x="1041.3608653698743" y="1600.0" type="line" identifier="nRfcNgqJ4H"/>
      <point x="96.36425915404895" y="1600.0" type="line" identifier="3XJlWt89ad"/>
      <point x="96.36425915404895" y="0.0" type="line" identifier="wdbO8kCovY"/>
    </contour>
  </outline>
</glyph>
<glyph name="M" format="2">
  <advance width="5405.683244806367"/>
  <unicode hex="004D"/>
  <outline>
    <contour>
      <point x="2662.264144023904" y="85.49348146945742" type="line" identifier="0Dn4Xpf57M"/>
      <point x="1090.1227052878708" y="874.6422999576151" type="line"/>
      <point x="1063.612245879513" y="874.6422999576151" type="line"/>
      <point x="1063.612245879513" y="0.0" type="line"/>
      <point x="118.6156396636877" y="0.0" type="line"/>
      <point x="118.6156396636877" y="1600.0" type="line"/>
      <point x="1118.772057342628" y="1600.0" type="line"/>
      <point x="2691.3676198721246" y="808.9072556039523" type="line"/>
      <point x="2713.425569713858" y="808.9072556039523" type="line" identifier="9aKZPM0HPh"/>
      <point x="4285.176672167664" y="1600.0" type="line"/>
      <point x="5287.067605142681" y="1600.0" type="line"/>
      <point x="5287.067605142681" y="0.0" type="line"/>
      <point x="4341.180943706469" y="0.0" type="line"/>
      <point x="4341.180943706469" y="874.6422999576151" type="line"/>
      <point x="4315.61943324706" y="874.6422999576151" type="line"/>
      <point x="2742.529045562079" y="85.49348146945742" type="line" identifier="spdoeeCFft"/>
    </contour>
  </outline>
</glyph>
<glyph name="N" format="2">
  <advance width="4293.326401476552"/>
  <unicode hex="004E"/>
  <outline>
    <contour>
      <point x="96.36425915404895" y="0.0" type="line" identifier="CkwYPPvJLv"/>
      <point x="1040.4575115656196" y="0.0" type="line" identifier="oHTJsN7drZ"/>
      <point x="1040.4575115656196" y="938.6489191894598" type="line" identifier="wfBbYd10Pm"/>
      <point x="1051.1366170975782" y="938.6489191894598" type="line" identifier="MEnBDHq6zU"/>
      <point x="3252.725241758275" y="535.3247992737482" type="line" identifier="3Nbopwznvn"/>
      <point x="3252.725241758275" y="0.0" type="line"/>
      <point x="4196.962142322502" y="0.0" type="line" identifier="uKfuudIUvA"/>
      <point x="4196.962142322502" y="1600.0" type="line" identifier="XRdLFXiM4t"/>
      <point x="3252.868889910932" y="1600.0" type="line" identifier="MUSJPjCIXg"/>
      <point x="3252.916772628484" y="1177.2065549032516" type="line" identifier="VILP20cFmq"/>
      <point x="3248.404602800999" y="1177.2065549032516" type="line" identifier="z5b04GDwRN"/>
      <point x="1073.002513023534" y="1600.0478827175523" type="line" identifier="LL64NQ6WBE"/>
      <point x="96.36425915404895" y="1600.0" type="line" identifier="dzUaaP1sjt"/>
    </contour>
  </outline>
</glyph>
<glyph name="O" format="2">
  <advance width="5060.107975843713"/>
  <unicode hex="004F"/>
  <outline>
    <contour>
      <point x="4990.007554100646" y="539.625718811905" type="line" identifier="ob8US3C311"/>
      <point x="4990.007554100646" y="1600.0" type="line" identifier="c9brEFyXXA"/>
      <point x="550.9616553490428" y="1600.0" type="line" identifier="a4Ql951bxG"/>
      <point x="70.1004217430644" y="1062.542416290164" type="line" identifier="kbL68Qh2zr"/>
      <point x="70.1004217430644" y="0.0" type="line" identifier="U6WibAQAUl"/>
      <point x="4508.305028752477" y="0.0" type="line" identifier="dfgNHTgBfR"/>
    </contour>
    <contour>
      <point x="4045.0109478848217" y="866.6347969591212" type="line" identifier="SnrsQD5TLy"/>
      <point x="3865.1596671746825" y="653.0893957020083" type="line" identifier="jjd5iRDXWT"/>
      <point x="1014.1936741546351" y="653.0893957020083" type="line" identifier="YbQKHpAtYn"/>
      <point x="1014.1936741546351" y="733.0145009874739" type="line" identifier="vdfGLkskOQ"/>
      <point x="1185.9768326885446" y="946.9106042979915" type="line" identifier="qXlVxK5ShE"/>
      <point x="4045.0109478848217" y="946.9106042979915" type="line" identifier="g70r2r6DwY"/>
    </contour>
  </outline>
</glyph>
<glyph name="P" format="2">
  <advance width="5237.3287191095"/>
  <unicode hex="0050"/>
  <outline>
    <contour>
      <point x="96.36425915404895" y="0.0" type="line" identifier="EG08jqU5fb"/>
      <point x="1040.4575115656196" y="0.0" type="line" identifier="osRzIFK2Cu"/>
      <point x="1040.4575115656196" y="263.0366492618744" type="line" identifier="hIFVovVRwe"/>
      <point x="5110.408002597192" y="298.59397235072913" type="line" identifier="Tt6D8zYZmU"/>
      <point x="5110.408002597192" y="1600.0" type="line" identifier="6xW04auDFu"/>
      <point x="96.36425915404895" y="1600.0" type="line" identifier="eETO5GBD5v"/>
    </contour>
    <contour>
      <point x="1040.4575115656196" y="788.5473311148986" type="line" identifier="PIBVN1PGv1"/>
      <point x="1040.4575115656196" y="1001.1118325532739" type="line" identifier="IZIZQr2gYJ"/>
      <point x="4164.52134116098" y="1001.1118325532739" type="line" identifier="2c4LCF1E1R"/>
      <point x="4164.52134116098" y="785.7591284978673" type="line" identifier="1WCnzth1GX"/>
    </contour>
  </outline>
</glyph>
<glyph name="R" format="2">
  <advance width="5187.699278858438"/>
  <unicode hex="0052"/>
  <outline>
    <contour>
      <point x="1064.5155996837677" y="892.2330168005843" type="line"/>
      <point x="1062.7088920752583" y="1001.1118325532739" type="line"/>
      <point x="4146.3964655346035" y="1001.1118325532739" type="line"/>
      <point x="4147.2998193388585" y="1109.0878656434213" type="line"/>
      <point x="3797.069910751592" y="892.2330168005843" type="line"/>
    </contour>
    <contour>
      <point x="5094.44412280148" y="0.0" type="line"/>
      <point x="5095.347476605735" y="424.0603907210514" type="line"/>
      <point x="4738.278245212179" y="655.9270531793054" type="line"/>
      <point x="4738.278245212179" y="657.9270531793054" type="line"/>
      <point x="5092.296425554684" y="882.5029744459176" type="line"/>
      <point x="5091.393071750429" y="1600.0" type="line"/>
      <point x="118.6156396636877" y="1600.0" type="line"/>
      <point x="118.6156396636877" y="0.0" type="line"/>
      <point x="1063.612245879513" y="0.0" type="line"/>
      <point x="1063.612245879513" y="387.29364499634767" type="line"/>
      <point x="3797.973264555847" y="387.29364499634767" type="line"/>
      <point x="4149.447516585656" y="157.68004941878814" type="line"/>
      <point x="4149.447516585656" y="0.0" type="line"/>
    </contour>
  </outline>
</glyph>
<glyph name="S" format="2">
  <advance width="4813"/>
  <unicode hex="0053"/>
  <outline>
    <contour>
      <point x="145" y="0" type="line" identifier="09VlJ0BjUX"/>
      <point x="4669" y="0" type="line" identifier="EagWihqFM8"/>
      <point x="4669" y="1045" type="line" identifier="KfNuQA7eZe"/>
      <point x="1088" y="1045" type="line" identifier="At364YZFEy"/>
      <point x="1088" y="1232" type="line"/>
      <point x="1078" y="1107" type="line"/>
      <point x="3730" y="1107" type="line" identifier="3ZUkG35meB"/>
      <point x="3730" y="1079" type="line" identifier="DTOJhFIl15"/>
      <point x="4668" y="1079" type="line" identifier="9KDcrfQ5Ui"/>
      <point x="4668" y="1600" type="line" identifier="SaF9ojRFrW"/>
      <point x="538" y="1600" type="line"/>
      <point x="150" y="1237" type="line"/>
      <point x="150" y="552" type="line" identifier="3sQ8t8BZ6b"/>
      <point x="3730" y="552" type="line" identifier="yiV6OCBLHg"/>
      <point x="3730" y="493" type="line" identifier="9kdl9SYsn8"/>
      <point x="1085" y="493" type="line" identifier="yZDWuX8LLe"/>
      <point x="1085" y="500" type="line" identifier="jYb9001DTm"/>
      <point x="145" y="500" type="line" identifier="ho4DrS0rdW"/>
    </contour>
  </outline>
</glyph>
<glyph name="U" format="2">
  <advance width="5056"/>
  <unicode hex="0055"/>
  <outline>
    <contour>
      <point x="3869" y="1600" type="line" smooth="yes"/>
      <point x="3869" y="531" type="line"/>
      <point x="1326" y="531" type="line" smooth="yes"/>
      <point x="1139" y="712" type="line" smooth="yes"/>
      <point x="1139" y="1600" type="line"/>
      <point x="201" y="1600" type="line" smooth="yes"/>
      <point x="201" y="499" type="line" smooth="yes"/>
      <point x="685" y="0" type="line" smooth="yes"/>
      <point x="4808" y="0" type="line" smooth="yes"/>
      <point x="4808" y="1600" type="line" smooth="yes"/>
    </contour>
  </outline>
</glyph>
<glyph name="V" format="2">
  <advance width="5210.584485386287"/>
  <unicode hex="0056"/>
  <outline>
    <contour>
      <point x="1040.4575115656196" y="1600.0" type="line" smooth="yes"/>
      <point x="1040.4575115656196" y="598.888167446726" type="line"/>
      <point x="3856.1319908497085" y="598.888167446726" type="line" smooth="yes"/>
      <point x="4194.597402207012" y="933.6514592670749" type="line" smooth="yes"/>
      <point x="4194.597402207012" y="1600.0" type="line"/>
      <point x="5140.484063643223" y="1600.0" type="line" smooth="yes"/>
      <point x="5140.484063643223" y="502.7060994928863" type="line" smooth="yes"/>
      <point x="4650.374774173572" y="0.0" type="line" smooth="yes"/>
      <point x="96.36425915404895" y="0.0" type="line" smooth="yes"/>
      <point x="96.36425915404895" y="1600.0" type="line" smooth="yes"/>
    </contour>
  </outline>
</glyph>
<glyph name="W" format="2">
  <advance width="6183.973090207324"/>
  <unicode hex="0057"/>
  <outline>
    <contour>
      <point x="1064.550183817451" y="1600.0" type="line" smooth="yes" identifier="12Pyby1xY2"/>
      <point x="118.6156396636877" y="1600.0" type="line" smooth="yes" identifier="5LJg4ajoG6"/>
      <point x="118.6156396636877" y="0.0" type="line" smooth="yes" identifier="ZqTZqAY3uY"/>
      <point x="2936.5353100848592" y="0.0" type="line" smooth="yes" identifier="rCeQLyjlsN"/>
      <point x="3101.5340686031377" y="295.8244791337884" type="line"/>
      <point x="3103.4885546206865" y="295.8244791337884" type="line"/>
      <point x="3257.571646721797" y="0.0" type="line" smooth="yes" identifier="Pkl7cZ37MU"/>
      <point x="5599.599858116375" y="0.0" type="line" smooth="yes" identifier="R4lklfJsHA"/>
      <point x="6091.621287954622" y="501.7484451418385" type="line" smooth="yes" identifier="7g7f8Wu7K4"/>
      <point x="6091.621287954622" y="1600.0" type="line" smooth="yes" identifier="RTOJW56qXy"/>
      <point x="5146.576799021243" y="1600.0" type="line" identifier="JfSFAkWGZC"/>
      <point x="5146.576799021243" y="848.0634508382257" type="line" smooth="yes" identifier="WWvGwSpq0g"/>
      <point x="4878.619905190476" y="598.888167446726" type="line" smooth="yes" identifier="oee4nqI8Wl"/>
      <point x="3736.9377756134513" y="598.888167446726" type="line" identifier="Ljn2lpvpG8"/>
      <point x="3576.0778706634565" y="887.661760859959" type="line"/>
      <point x="3576.1264688111537" y="1478.7469150832512" type="line" smooth="yes"/>
      <point x="2636.00106412719" y="1478.7469150832512" type="line"/>
      <point x="2634.1457583709835" y="1236.0231132032932" type="line"/>
      <point x="2634.1425900374848" y="885.746806866927" type="line"/>
      <point x="2432.1338485632778" y="598.888167446726" type="line" identifier="GlWB6PG54Z"/>
      <point x="1064.550183817451" y="598.888167446726" type="line" identifier="iqeTRv7HXg"/>
    </contour>
  </outline>
</glyph>
<glyph name="X" format="2">
  <advance width="5240.077001926852"/>
  <unicode hex="0058"/>
  <outline>
    <contour>
      <point x="3836.8528558588623" y="495.1357934511087" type="line"/>
      <point x="4202.728593458323" y="264.7490283075868" type="line"/>
      <point x="4202.728593458323" y="0.0" type="line"/>
      <point x="5147.725199674148" y="0.0" type="line"/>
      <point x="5147.725199674148" y="560.0366913460006" type="line"/>
      <point x="4778.902482061641" y="799.0" type="line"/>
      <point x="4778.902482061641" y="801.0" type="line"/>
      <point x="5144.674148623098" y="1025.5759212666119" type="line"/>
      <point x="5144.674148623098" y="1600.0" type="line"/>
      <point x="4199.72614055497" y="1600.0" type="line"/>
      <point x="4199.72614055497" y="1320.8635843050258" type="line"/>
      <point x="3836.8528558588623" y="1104.8642065488914" type="line"/>
      <point x="1404.1142012883754" y="1104.8642065488914" type="line"/>
      <point x="1040.3508613718823" y="1320.8635843050258" type="line"/>
      <point x="1040.3508613718823" y="1600.0" type="line"/>
      <point x="95.40285330375423" y="1600.0" type="line"/>
      <point x="95.40285330375423" y="1025.5759212666119" type="line"/>
      <point x="463.81238896554214" y="801.0" type="line"/>
      <point x="463.81238896554214" y="799.0" type="line"/>
      <point x="92.35180225270318" y="560.0366913460006" type="line"/>
      <point x="92.35180225270318" y="0.0" type="line"/>
      <point x="1037.3484084685285" y="0.0" type="line"/>
      <point x="1037.3484084685285" y="264.7490283075868" type="line"/>
      <point x="1404.1142012883754" y="495.1357934511087" type="line"/>
    </contour>
  </outline>
</glyph>
<glyph name="Y" format="2">
  <advance width="5341.4608301995695"/>
  <unicode hex="0059"/>
  <outline>
    <contour>
      <point x="2198.8325141958776" y="1.6889201513826138" type="line" identifier="XKjckKJ7m9"/>
      <point x="3143.780522264006" y="0.0" type="line" identifier="WihjL321cU"/>
      <point x="3143.780522264006" y="553.5118391664939" type="line" identifier="rvzWMWl6O1"/>
      <point x="5192.288733177622" y="736.5117880643406" type="line" identifier="YbKEFhFR3q"/>
      <point x="5192.288733177622" y="1572.977277577878" type="line" identifier="wnC8PudY2b"/>
      <point x="4247.292126961797" y="1572.977277577878" type="line" identifier="spI4xe8t4f"/>
      <point x="4247.292126961797" y="1198.5207790372956" type="line" identifier="Jw55i2s2Mm"/>
      <point x="2820.476413350287" y="1081.199899599299" type="line" identifier="9ncbEH2hEb"/>
      <point x="2522.1366231095963" y="1081.199899599299" type="line" identifier="u7HFbTQwMo"/>
      <point x="1094.120105090075" y="1198.5207790372956" type="line" identifier="oy8ifCCtGL"/>
      <point x="1094.120105090075" y="1572.977277577878" type="line" identifier="ah5yat5gKV"/>
      <point x="149.17209702194688" y="1572.977277577878" type="line" identifier="fJXhpKV79E"/>
      <point x="149.17209702194688" y="736.5117880643406" type="line" identifier="k3vH9oxqcN"/>
      <point x="2198.8325141958776" y="553.5118391664939" type="line" identifier="3Kveia3O9h"/>
    </contour>
  </outline>
</glyph>
<glyph name="Z" format="2">
  <advance width="5299.600856111367"/>
  <unicode hex="005A"/>
  <outline>
    <contour>
      <point x="126.9207165123081" y="0.0" type="line"/>
      <point x="5172.048363678994" y="0.0" type="line" identifier="pzdvPTirLJ"/>
      <point x="5172.048363678994" y="425.2884896908921" type="line" identifier="91SxUS0iwG"/>
      <point x="4405.062801540279" y="425.2884896908921" type="line"/>
      <point x="4405.062801540279" y="598.888167446726" type="line"/>
      <point x="1694.0526231937642" y="598.888167446726" type="line"/>
      <point x="1694.0526231937642" y="639.2466730995259" type="line"/>
      <point x="5167.818806794783" y="849.083864645426" type="line" identifier="yyb1NCCI5w"/>
      <point x="5167.818806794783" y="1600.0" type="line" identifier="5FogYRSgkk"/>
      <point x="129.96859922986047" y="1600.0" type="line" identifier="svlFvrau4c"/>
      <point x="129.96859922986047" y="1187.366808249691" type="line" identifier="LQ9fBsTy9K"/>
      <point x="893.5347720092464" y="1187.366808249691" type="line"/>
      <point x="893.5347720092464" y="1001.1118325532739" type="line"/>
      <point x="3555.9764479193914" y="1001.1118325532739" type="line"/>
      <point x="3555.9764479193914" y="947.9408778147515" type="line"/>
      <point x="126.9207165123081" y="767.6133731328928" type="line" identifier="teVKnpBcVb"/>
    </contour>
  </outline>
</glyph>
<glyph name="B.narrow" format="2">
  <advance width="5335"/>
  <outline>
    <contour>
      <point x="248" y="0" type="line" identifier="hvY9r8RmLr"/>
      <point x="5134" y="0" type="line" identifier="9QFpw7nfq7"/>
      <point x="5134" y="550" type="line" identifier="543PerILpr"/>
      <point x="4957" y="609" type="line" identifier="870ZhtaozS"/>
      <point x="5086" y="657" type="line" identifier="eGKH52Jgnk"/>
      <point x="5086" y="1600" type="line" identifier="FaP204GrdB"/>
      <point x="248" y="1600" type="line" identifier="JEev70GAj6"/>
    </contour>
    <contour>
      <point x="1186" y="879" type="line" identifier="By7dfMihfe"/>
      <point x="1186" y="1107" type="line" identifier="1p5hKrurVy"/>
      <point x="4148" y="1107" type="line" identifier="Qby8aMtF2X"/>
      <point x="4148" y="978" type="line" identifier="9lW01gQyU2"/>
    </contour>
    <contour>
      <point x="1186" y="493" type="line" identifier="jaMSiLrCua"/>
      <point x="1186" y="435" type="line" identifier="XSrxNd2axx"/>
      <point x="3767" y="544" type="line" identifier="VyYlzRh5nq"/>
      <point x="4195" y="337" type="line" identifier="lsRGatjQja"/>
      <point x="4195" y="493" type="line" identifier="xhlDJ3CjD5"/>
    </contour>
  </outline>
</glyph>
<glyph name="C.wide" format="2">
  <advance width="5175"/>
  <outline>
    <contour>
      <point x="222" y="0" type="line" identifier="7lPhzTnk2Z"/>
      <point x="5033" y="0" type="line" identifier="qJVLZGnkwh"/>
      <point x="5033" y="600" type="line" identifier="Y750RHTvDj"/>
      <point x="1161" y="600" type="line" identifier="L2LsGnXiZ2"/>
      <point x="1162" y="766" type="line" identifier="sUWsr03vF4"/>
      <point x="1390" y="1000" type="line" identifier="dbOUe6OhxL"/>
      <point x="5032" y="1000" type="line" identifier="5BjRbcud80"/>
      <point x="5032" y="1600" type="line" identifier="9eJelv8BOw"/>
      <point x="696" y="1600" type="line" identifier="lfZev3ICaC"/>
      <point x="222" y="1093" type="line" identifier="V1EWIdPahq"/>
    </contour>
  </outline>
</glyph>
<glyph name="E.wide" format="2">
  <advance width="4806"/>
  <outline>
    <contour>
      <point x="248" y="0" type="line" identifier="fZynkQ4XHB"/>
      <point x="4661" y="0" type="line" identifier="FAQNpgUPxV"/>
      <point x="4661" y="492" type="line" identifier="5cgTYOhATF"/>
      <point x="1186" y="492" type="line" identifier="bWs42DaCgU"/>
      <point x="1186" y="555" type="line" identifier="VtD2aADJmn"/>
      <point x="4472" y="555" type="line" identifier="PpbsFdHAnS"/>
      <point x="4472" y="1045" type="line" identifier="8WuC5p8Ax5"/>
      <point x="1186" y="1045" type="line" identifier="m39IWn9ntA"/>
      <point x="1186" y="1109" type="line" identifier="gQ21I4SHQg"/>
      <point x="4660" y="1109" type="line" identifier="eqNb2VTwYs"/>
      <point x="4660" y="1600" type="line" identifier="qYRmo14Il5"/>
      <point x="248" y="1600" type="line" identifier="HmJIcnLWfC"/>
    </contour>
  </outline>
</glyph>
<glyph name="F.wide" format="2">
  <advance width="4505.070899728557"/>
  <outline>
    <contour>
      <point x="96.36425915404895" y="0.0" type="line" identifier="oAgH2tA6DJ"/>
      <point x="1040.4575115656196" y="0.0" type="line" identifier="zCZyMcW5ho"/>
      <point x="1040.4575115656196" y="337.96366636907175" type="line" identifier="yHYqkMd7LI"/>
      <point x="4143.656509362216" y="337.96366636907175" type="line" identifier="NmB7yyQuio"/>
      <point x="4143.656509362216" y="853.7432838243649" type="line" identifier="wQk2C8zPHh"/>
      <point x="1040.4575115656196" y="853.7432838243649" type="line" identifier="4cFHKQfHDt"/>
      <point x="1040.4575115656196" y="999.3051249447644" type="line" identifier="ZvzwyrcwpS"/>
      <point x="4378.150183216249" y="999.3051249447644" type="line" identifier="4E754ovOIe"/>
      <point x="4378.150183216249" y="1600.0" type="line" identifier="NUrIjqOB7J"/>
      <point x="96.36425915404895" y="1600.0" type="line" identifier="TBAYuCfUFX"/>
    </contour>
  </outline>
</glyph>
<glyph name="G.wide" format="2">
  <advance width="5343.469676884092"/>
  <outline>
    <contour>
      <point x="70.1004217430644" y="0.0" type="line" identifier="7lPhzTnk2Z"/>
      <point x="5114.124460797133" y="0.0" type="line" identifier="qJVLZGnkwh"/>
      <point x="5114.124460797133" y="965.7820553286019" type="line" identifier="uek1NNj7De"/>
      <point x="2342.9550691832974" y="965.7820553286019" type="line" identifier="qcvimxjndX"/>
      <point x="2342.9550691832974" y="614.2698945191437" type="line" identifier="EARaY3Su65"/>
      <point x="4168.620861101342" y="614.2698945191437" type="line" identifier="4m6dHLVhZq"/>
      <point x="4168.620861101342" y="553.7204772339908" type="line" identifier="Y750RHTvDj"/>
      <point x="1014.1936741546351" y="553.7204772339908" type="line" identifier="L2LsGnXiZ2"/>
      <point x="1014.1936741546351" y="845.8402366330293" type="line" identifier="sUWsr03vF4"/>
      <point x="1215.8670051432816" y="1037.245984723462" type="line" identifier="dbOUe6OhxL"/>
      <point x="5113.220226232238" y="1037.245984723462" type="line" identifier="5BjRbcud80"/>
      <point x="5113.220226232238" y="1600.0" type="line" identifier="9eJelv8BOw"/>
      <point x="556.8547526505484" y="1600.0" type="line" identifier="lfZev3ICaC"/>
      <point x="70.1004217430644" y="1100.7369561753947" type="line" identifier="V1EWIdPahq"/>
    </contour>
  </outline>
</glyph>
<glyph name="K.alt" format="2">
  <advance width="5335"/>
  <outline>
    <contour>
      <point x="1162" y="0" type="line" identifier="wmNm7XZsaF"/>
      <point x="1162" y="528" type="line" identifier="O22liaP9Qk"/>
      <point x="3713" y="528" type="line" identifier="ELFBWIb1vd"/>
      <point x="3996" y="520" type="line" identifier="DzXo67YEfw"/>
      <point x="3996" y="0" type="line" identifier="aKpYWD78l2"/>
      <point x="4935" y="0" type="line" identifier="ChS7KlqGi6"/>
      <point x="4935" y="1028" type="line" identifier="sWLgkU8Vey"/>
      <point x="4394" y="1045" type="line" identifier="Of0iQc0wBG"/>
      <point x="4526" y="1600" type="line" identifier="dMJ1ywOKQQ"/>
      <point x="3571" y="1600" type="line" identifier="08OWjR2YBJ"/>
      <point x="3457" y="1059" type="line" identifier="g4YLdZEoM3"/>
      <point x="1162" y="1059" type="line" identifier="uZuki3Isec"/>
      <point x="1162" y="1600" type="line" identifier="nRfcNgqJ4H"/>
      <point x="223" y="1600" type="line" identifier="3XJlWt89ad"/>
      <point x="223" y="0" type="line" identifier="wdbO8kCovY"/>
    </contour>
  </outline>
</glyph>
<glyph name="K.narrow" format="2">
  <advance width="5269"/>
  <outline>
    <contour>
      <point x="1187" y="0" type="line"/>
      <point x="1187" y="489" type="line"/>
      <point x="3901" y="633" type="line"/>
      <point x="4133" y="0" type="line"/>
      <point x="5069" y="0" type="line"/>
      <point x="4717" y="816" type="line"/>
      <point x="5007" y="832" type="line"/>
      <point x="5007" y="1600" type="line"/>
      <point x="4067" y="1600" type="line"/>
      <point x="4067" y="1173" type="line"/>
      <point x="1187" y="1020" type="line"/>
      <point x="1187" y="1600" type="line"/>
      <point x="248" y="1600" type="line"/>
      <point x="248" y="0" type="line"/>
    </contour>
  </outline>
</glyph>
<glyph name="L.wide" format="2">
  <advance width="4192.312946580214"/>
  <outline>
    <contour>
      <point x="96.50054859664468" y="0.0" type="line" identifier="XkJNfQlnnt"/>
      <point x="4064.398016635254" y="0.0" type="line" identifier="82EXZEgt46"/>
      <point x="4064.398016635254" y="653.0893957020083" type="line" identifier="cqpSxwFiM3"/>
      <point x="1041.49715481247" y="653.0893957020083" type="line" identifier="MbxRZRd8vz"/>
      <point x="1041.49715481247" y="1600.0" type="line" identifier="lYiaKSKITt"/>
      <point x="96.50054859664468" y="1600.0" type="line" identifier="XFf4mMUzYo"/>
    </contour>
  </outline>
</glyph>
<glyph name="M.narrow" format="2">
  <advance width="7109"/>
  <outline>
    <contour>
      <point x="5969" y="0" type="line" smooth="yes" identifier="12Pyby1xY2"/>
      <point x="6909" y="0" type="line" smooth="yes" identifier="5LJg4ajoG6"/>
      <point x="6909" y="1599" type="line" smooth="yes" identifier="ZqTZqAY3uY"/>
      <point x="726" y="1599" type="line" smooth="yes" identifier="R4lklfJsHA"/>
      <point x="248" y="1077" type="line" smooth="yes" identifier="7g7f8Wu7K4"/>
      <point x="248" y="0" type="line" smooth="yes" identifier="RTOJW56qXy"/>
      <point x="1187" y="0" type="line" identifier="JfSFAkWGZC"/>
      <point x="1187" y="808" type="line" smooth="yes" identifier="WWvGwSpq0g"/>
      <point x="1445" y="1068" type="line" smooth="yes" identifier="oee4nqI8Wl"/>
      <point x="3092" y="1068" type="line" identifier="Ljn2lpvpG8"/>
      <point x="3092" y="104" type="line" smooth="yes"/>
      <point x="4032" y="104" type="line"/>
      <point x="4032" y="1068" type="line" identifier="GlWB6PG54Z"/>
      <point x="5969" y="1068" type="line" identifier="iqeTRv7HXg"/>
    </contour>
  </outline>
</glyph>
<glyph name="N.narrow" format="2">
  <advance width="6351"/>
  <outline>
    <contour>
      <point x="248" y="86" type="line" smooth="yes"/>
      <point x="1186" y="86" type="line"/>
      <point x="1186" y="704" type="line"/>
      <point x="1576" y="1060" type="line"/>
      <point x="5164" y="1060" type="line"/>
      <point x="5164" y="0" type="line" smooth="yes"/>
      <point x="6103" y="0" type="line" smooth="yes"/>
      <point x="6103" y="1600" type="line" smooth="yes"/>
      <point x="1415" y="1600" type="line" smooth="yes"/>
      <point x="1186" y="1472" type="line"/>
      <point x="1029" y="1472" type="line"/>
      <point x="1029" y="1600" type="line"/>
      <point x="248" y="1600" type="line"/>
    </contour>
  </outline>
</glyph>
<glyph name="N.wide" format="2">
  <advance width="4508"/>
  <outline>
    <contour>
      <point x="248" y="0" type="line" identifier="CkwYPPvJLv"/>
      <point x="1186" y="0" type="line" identifier="oHTJsN7drZ"/>
      <point x="1186" y="1053" type="line" identifier="wfBbYd10Pm"/>
      <point x="1307" y="1053" type="line" identifier="MEnBDHq6zU"/>
      <point x="2949" y="0" type="line" identifier="3Nbopwznvn"/>
      <point x="4260" y="0" type="line" identifier="uKfuudIUvA"/>
      <point x="4260" y="1600" type="line" identifier="XRdLFXiM4t"/>
      <point x="3322" y="1600" type="line" identifier="MUSJPjCIXg"/>
      <point x="3322" y="552" type="line" identifier="VILP20cFmq"/>
      <point x="3202" y="552" type="line" identifier="z5b04GDwRN"/>
      <point x="1563" y="1600" type="line" identifier="LL64NQ6WBE"/>
      <point x="248" y="1600" type="line" identifier="dzUaaP1sjt"/>
    </contour>
  </outline>
</glyph>
<glyph name="S.alt" format="2">
  <advance width="5124.420883345809"/>
  <outline>
    <contour>
      <point x="87.16362608855103" y="0.0" type="line" identifier="09VlJ0BjUX"/>
      <point x="5038.454917379842" y="0.0" type="line" identifier="EagWihqFM8"/>
      <point x="5038.454917379842" y="991.3903903903904" type="line" identifier="KfNuQA7eZe"/>
      <point x="1025.036781526271" y="991.3903903903904" type="line" identifier="At364YZFEy"/>
      <point x="1025.036781526271" y="1101.2387793198602" type="line"/>
      <point x="1195.7046385725064" y="1069.7667216766315" type="line"/>
      <point x="4093.410428446465" y="1069.7667216766315" type="line" identifier="3ZUkG35meB"/>
      <point x="4093.410428446465" y="1058.597630663697" type="line" identifier="DTOJhFIl15"/>
      <point x="5038.454917379842" y="1058.597630663697" type="line" identifier="9KDcrfQ5Ui"/>
      <point x="5038.454917379842" y="1600.0" type="line" identifier="SaF9ojRFrW"/>
      <point x="653.1583174766358" y="1600.0" type="line"/>
      <point x="85.16362608855103" y="1104.1117423730036" type="line"/>
      <point x="85.16362608855103" y="608.6096096096096" type="line" identifier="3sQ8t8BZ6b"/>
      <point x="4093.410428446465" y="608.6096096096096" type="line" identifier="yiV6OCBLHg"/>
      <point x="4093.410428446465" y="530.2332783233684" type="line" identifier="9kdl9SYsn8"/>
      <point x="1031.7118590061534" y="530.2332783233684" type="line" identifier="yZDWuX8LLe"/>
      <point x="1031.7118590061534" y="501.019000982965" type="line" identifier="jYb9001DTm"/>
      <point x="87.16362608855103" y="501.019000982965" type="line" identifier="ho4DrS0rdW"/>
    </contour>
  </outline>
</glyph>
<glyph name="S.wide" format="2">
  <advance width="4581"/>
  <outline>
    <contour>
      <point x="145" y="0" type="line" identifier="09VlJ0BjUX"/>
      <point x="4436" y="0" type="line" identifier="EagWihqFM8"/>
      <point x="4436" y="1044" type="line" identifier="KfNuQA7eZe"/>
      <point x="1079" y="1044" type="line" identifier="At364YZFEy"/>
      <point x="1079" y="1067" type="line"/>
      <point x="1150" y="1107" type="line"/>
      <point x="4436" y="1107" type="line" identifier="3ZUkG35meB"/>
      <point x="4436" y="1600" type="line" identifier="SaF9ojRFrW"/>
      <point x="619" y="1600" type="line"/>
      <point x="151" y="1073" type="line"/>
      <point x="151" y="556" type="line" identifier="3sQ8t8BZ6b"/>
      <point x="3497" y="556" type="line" identifier="yiV6OCBLHg"/>
      <point x="3497" y="493" type="line" identifier="9kdl9SYsn8"/>
      <point x="145" y="493" type="line" identifier="yZDWuX8LLe"/>
    </contour>
  </outline>
</glyph>
<glyph name="Y.alt" format="2">
  <advance width="4902"/>
  <outline>
    <contour>
      <point x="149" y="493" type="line"/>
      <point x="149" y="0" type="line"/>
      <point x="4654" y="0" type="line" identifier="oOtn61SmRY"/>
      <point x="4654" y="1600" type="line" identifier="8OglXgblhr"/>
      <point x="3715" y="1600" type="line" identifier="db0bPhBdaU"/>
      <point x="3715" y="1138" type="line" identifier="MTAeavIVWY"/>
      <point x="1083" y="1138" type="line" identifier="lggLiivmLt"/>
      <point x="1083" y="1600" type="line" identifier="UPaHY3UudR"/>
      <point x="145" y="1600" type="line" identifier="ZnCDQVdtyD"/>
      <point x="145" y="645" type="line" identifier="uqAJBjDIOT"/>
      <point x="3715" y="645" type="line" identifier="7JgTtdb0jg"/>
      <point x="3715" y="493" type="line"/>
    </contour>
  </outline>
</glyph>
<glyph name="Z.wide" format="2">
  <advance width="5331.436715995274"/>
  <outline>
    <contour>
      <point x="134.81627573519467" y="0.0" type="line"/>
      <point x="5181.632843053264" y="0.0" type="line" identifier="pzdvPTirLJ"/>
      <point x="5181.632843053264" y="597.9848136424713" type="line"/>
      <point x="1186.619508397286" y="597.9848136424713" type="line"/>
      <point x="1186.619508397286" y="565.5468711955198" type="line"/>
      <point x="5170.294243192141" y="634.963930897865" type="line" identifier="yyb1NCCI5w"/>
      <point x="5170.294243192141" y="1600.0" type="line" identifier="5FogYRSgkk"/>
      <point x="154.7533599665732" y="1600.0" type="line" identifier="svlFvrau4c"/>
      <point x="154.7533599665732" y="1002.0151863575286" type="line"/>
      <point x="4003.479494509525" y="1002.0151863575286" type="line"/>
      <point x="4003.479494509525" y="1002.6442177913648" type="line"/>
      <point x="134.81627573519467" y="962.7368449530613" type="line" identifier="teVKnpBcVb"/>
    </contour>
  </outline>
</glyph>
<glyph name="five.wide" format="2">
  <advance width="5171"/>
  <outline>
    <contour>
      <point x="147" y="0" type="line" identifier="09VlJ0BjUX"/>
      <point x="5026" y="0" type="line" identifier="EagWihqFM8"/>
      <point x="5026" y="863" type="line" identifier="KfNuQA7eZe"/>
      <point x="1084" y="876" type="line" identifier="At364YZFEy"/>
      <point x="1084" y="1043" type="line" identifier="BcuLfvaQKC"/>
      <point x="5026" y="1043" type="line" identifier="3ZUkG35meB"/>
      <point x="5026" y="1600" type="line" identifier="SaF9ojRFrW"/>
      <point x="145" y="1600" type="line" identifier="F4sQEYelA8"/>
      <point x="145" y="572" type="line" identifier="3sQ8t8BZ6b"/>
      <point x="4088" y="558" type="line" identifier="yiV6OCBLHg"/>
      <point x="4088" y="557" type="line" identifier="9kdl9SYsn8"/>
      <point x="147" y="557" type="line" identifier="yZDWuX8LLe"/>
    </contour>
  </outline>
</glyph>
<glyph name="six.wide" format="2">
  <advance width="5334"/>
  <outline>
    <contour>
      <point x="223" y="0" type="line" identifier="uiw6aBUf4P"/>
      <point x="4941" y="0" type="line" identifier="jtYkxiUX6G"/>
      <point x="4941" y="1037" type="line" identifier="2G5L37c87I"/>
      <point x="1161" y="1037" type="line"/>
      <point x="1161" y="979" type="line"/>
      <point x="1344" y="1107" type="line"/>
      <point x="4940" y="1107" type="line"/>
      <point x="4940" y="1600" type="line" identifier="oGvEEuxnYv"/>
      <point x="682" y="1600" type="line" identifier="xR3pEHbMJx"/>
      <point x="223" y="1189" type="line" identifier="KnMArb0tv8"/>
    </contour>
    <contour>
      <point x="4002" y="552" type="line"/>
      <point x="4002" y="493" type="line"/>
      <point x="1161" y="493" type="line"/>
      <point x="1161" y="552" type="line"/>
    </contour>
  </outline>
</glyph>
<glyph name="three.wide" format="2">
  <advance width="4968"/>
  <outline>
    <contour>
      <point x="143" y="0" type="line" identifier="O9abUc1nmN"/>
      <point x="4852" y="0" type="line" identifier="kMJYMTfXCq"/>
      <point x="4852" y="896" type="line" identifier="su2XmdS8e8"/>
      <point x="4363" y="896" type="line" identifier="JQaOzDQqlF"/>
      <point x="4363" y="786" type="line"/>
      <point x="4839" y="991" type="line" identifier="S91TzLL02W"/>
      <point x="4839" y="1600" type="line" identifier="xg8x2Ki40p"/>
      <point x="167" y="1600" type="line" identifier="pE1XSRiy68"/>
      <point x="167" y="1042" type="line" identifier="7ogBYufWpl"/>
      <point x="3696" y="1042" type="line" identifier="RHLvSX2Jv6"/>
      <point x="3696" y="971" type="line" identifier="YUjTrmoWd9"/>
      <point x="3574" y="961" type="line"/>
      <point x="3574" y="961" type="line" identifier="iic1IBkDqp"/>
      <point x="882" y="961" type="line" identifier="lRLJEhXMlO"/>
      <point x="882" y="633" type="line" identifier="8aKgEELrVU"/>
      <point x="3912" y="633" type="line" identifier="Dm8zjmbhNr"/>
      <point x="3912" y="557" type="line" identifier="xv9CFHiFgB"/>
      <point x="143" y="557" type="line" identifier="YajKQV3MHP"/>
    </contour>
  </outline>
</glyph>
